<svg xmlns="http://www.w3.org/2000/svg" xmlns:xlink="http://www.w3.org/1999/xlink" width="50" zoomAndPan="magnify" viewBox="0 0 37.5 37.499999" height="50" preserveAspectRatio="xMidYMid meet" version="1.0"><defs><clipPath id="faf8056c81"><path d="M 0 0 L 37.007812 0 L 37.007812 37.007812 L 0 37.007812 Z M 0 0 " clip-rule="nonzero"/></clipPath><clipPath id="b7498cff89"><path d="M 3.75 9.265625 L 36 9.265625 L 36 28.015625 L 3.75 28.015625 Z M 3.75 9.265625 " clip-rule="nonzero"/></clipPath></defs><g clip-path="url(#faf8056c81)"><path fill="#ffffff" d="M 0 0 L 37.5 0 L 37.5 45 L 0 45 Z M 0 0 " fill-opacity="1" fill-rule="nonzero"/><path fill="#ffffff" d="M 0 0 L 37.5 0 L 37.5 37.5 L 0 37.5 Z M 0 0 " fill-opacity="1" fill-rule="nonzero"/><path fill="#ffffff" d="M 0 0 L 37.5 0 L 37.5 37.5 L 0 37.5 Z M 0 0 " fill-opacity="1" fill-rule="nonzero"/></g><g clip-path="url(#b7498cff89)"><path fill="#3774eb" d="M 32.332031 12.191406 C 31.128906 12.449219 29.945312 12.804688 28.789062 13.242188 C 27.640625 13.695312 26.523438 14.226562 25.4375 14.816406 C 25.324219 14.878906 25.210938 14.945312 25.101562 15.007812 C 24.367188 15.429688 23.648438 15.878906 22.949219 16.351562 C 22.914062 16.371094 22.882812 16.398438 22.847656 16.417969 L 20.507812 14.691406 L 13.148438 9.265625 L 6.148438 14.359375 L 3.761719 16.101562 L 3.761719 28.007812 L 14.363281 28.007812 L 14.605469 27.648438 C 14.722656 27.46875 14.839844 27.289062 14.960938 27.109375 C 15.28125 26.621094 15.617188 26.144531 15.960938 25.667969 C 15.960938 25.664062 15.960938 25.664062 15.964844 25.660156 C 15.980469 25.640625 15.996094 25.617188 16.011719 25.59375 C 16.6875 24.664062 17.398438 23.753906 18.136719 22.867188 C 18.890625 21.96875 19.683594 21.097656 20.503906 20.257812 C 20.507812 20.25 20.515625 20.242188 20.523438 20.238281 C 21.019531 19.738281 21.523438 19.242188 22.042969 18.761719 C 22.324219 18.503906 22.605469 18.253906 22.894531 18.003906 C 22.972656 17.9375 23.046875 17.875 23.125 17.808594 C 23.402344 17.574219 23.6875 17.339844 23.972656 17.113281 C 24.617188 16.597656 25.277344 16.109375 25.960938 15.644531 C 26.953125 14.980469 27.984375 14.371094 29.058594 13.835938 C 30.136719 13.3125 31.257812 12.867188 32.414062 12.511719 C 33.574219 12.175781 34.769531 11.941406 35.984375 11.8125 C 34.765625 11.828125 33.542969 11.957031 32.332031 12.191406 Z M 20.507812 18.144531 C 20.128906 18.445312 19.757812 18.753906 19.386719 19.066406 C 18.445312 19.863281 17.539062 20.699219 16.667969 21.570312 C 15.90625 22.328125 15.167969 23.109375 14.453125 23.914062 C 14.347656 24.03125 14.246094 24.148438 14.140625 24.269531 C 13.742188 24.730469 13.351562 25.195312 12.96875 25.667969 L 6.148438 25.667969 L 6.148438 17.277344 L 13.136719 12.1875 L 20.507812 17.625 L 20.847656 17.875 C 20.730469 17.964844 20.621094 18.054688 20.507812 18.144531 Z M 20.507812 18.144531 " fill-opacity="1" fill-rule="nonzero"/></g><path fill="#3774eb" d="M 11.371094 16.429688 L 12.785156 16.429688 L 12.785156 17.8125 L 11.371094 17.8125 Z M 11.371094 16.429688 " fill-opacity="1" fill-rule="nonzero"/><path fill="#3774eb" d="M 13.480469 16.429688 L 14.894531 16.429688 L 14.894531 17.8125 L 13.480469 17.8125 Z M 13.480469 16.429688 " fill-opacity="1" fill-rule="nonzero"/><path fill="#3774eb" d="M 11.371094 18.441406 L 12.785156 18.441406 L 12.785156 19.824219 L 11.371094 19.824219 Z M 11.371094 18.441406 " fill-opacity="1" fill-rule="nonzero"/><path fill="#3774eb" d="M 13.480469 18.441406 L 14.894531 18.441406 L 14.894531 19.824219 L 13.480469 19.824219 Z M 13.480469 18.441406 " fill-opacity="1" fill-rule="nonzero"/></svg>